<?xml version="1.0" standalone="no"?>
<!DOCTYPE svg PUBLIC "-//W3C//DTD SVG 20010904//EN"
 "http://www.w3.org/TR/2001/REC-SVG-20010904/DTD/svg10.dtd">
<svg version="1.0" xmlns="http://www.w3.org/2000/svg"
 width="100.000000pt" height="100.000000pt" viewBox="0 0 100.000000 100.000000"
 preserveAspectRatio="xMidYMid meet">
<metadata>
Created by potrace 1.14, written by Peter Selinger 2001-2017
</metadata>
<g transform="translate(0.000000,100.000000) scale(0.100000,-0.100000)"
fill="#000000" stroke="none">
<path d="M300 945 c-102 -25 -175 -67 -201 -117 -6 -11 7 -2 29 20 138 138
540 133 708 -9 l39 -33 -34 36 c-40 43 -125 84 -218 103 -84 18 -250 18 -323
0z"/>
<path d="M345 907 c-27 -7 -59 -19 -70 -25 -17 -10 -11 -11 30 -5 28 5 117 8
198 8 135 0 145 1 115 14 -46 19 -212 24 -273 8z"/>
<path d="M295 852 c-93 -24 -115 -37 -115 -67 0 -14 1 -25 3 -25 1 0 26 9 56
21 114 43 218 60 360 61 182 0 123 17 -84 23 -123 4 -163 2 -220 -13z"/>
<path d="M395 803 c-80 -17 -198 -69 -192 -86 7 -22 36 -33 55 -20 90 64 200
93 382 100 85 4 136 9 125 14 -35 14 -295 8 -370 -8z"/>
<path d="M81 733 l-1 -73 -40 0 -40 0 0 -50 0 -50 40 0 40 0 0 -85 0 -85 -40
0 -40 0 0 -50 c0 -50 0 -50 33 -50 101 -1 896 22 915 26 17 3 22 11 22 33 0
30 -14 41 -56 41 -24 0 -24 1 -24 94 l0 95 33 3 c28 3 32 6 32 33 0 27 -4 30
-32 33 l-33 3 -1 67 c-1 61 -2 63 -8 25 -9 -52 -39 -86 -105 -117 -72 -34
-156 -49 -266 -49 -112 1 -189 14 -269 46 -95 38 -138 81 -152 147 -5 27 -7
19 -8 -37z"/>
<path d="M555 774 c-11 -2 -45 -9 -75 -15 -59 -12 -193 -69 -204 -88 -4 -6 3
-16 17 -22 20 -9 33 -5 88 24 85 47 162 66 289 73 119 6 148 13 110 24 -26 8
-190 11 -225 4z"/>
<path d="M563 715 c-73 -16 -196 -72 -188 -86 12 -18 69 -9 154 25 49 20 124
40 174 47 48 7 87 17 87 21 0 13 -159 8 -227 -7z"/>
<path d="M674 675 c-75 -13 -177 -54 -156 -62 37 -14 232 42 232 66 0 6 -1 11
-2 10 -2 0 -35 -7 -74 -14z"/>
<path d="M505 269 c-159 -3 -310 -7 -334 -8 l-45 -1 30 -31 c35 -37 130 -83
202 -98 120 -25 291 -9 394 36 45 21 128 87 128 104 0 5 -19 8 -42 7 -24 -1
-173 -5 -333 -9z"/>
</g>
</svg>
